# File created by Blade
# Date/Time:  Tue Sep 30 19:29:15 2014
#---------------------------------------------------------
:version 1.10
:name HOM
:units
  mass 1.0
  length 1.000000
  angle deg
:documentation
     Acclaim Skeleton File
:root
   axis xyz
   order TX TY TZ RX RY RZ
   position 0.000000 0.000000 0.000000
   orientation 0 0 0
:bonedata
   begin
      id 1
      name RightUpLeg_dum
      direction -1.000000 0.000000 0.000000
      length 3.766986
      axis 0.0 0.0 0.0 xyz
   end
   begin
      id 2
      name LeftUpLeg_dum
      direction 1.000000 0.000000 0.000000
      length 3.766986
      axis 0.0 0.0 0.0 xyz
   end
   begin
      id 3
      name Spine_dum
      direction 0.000000 1.000000 0.000000
      length 7.779697
      axis 0.0 0.0 0.0 xyz
   end
   begin
      id 4
      name RightUpLeg
      direction 0.000000 -1.000000 0.000000
      length 18.017682
      axis 0.0 0.0 0.0 xyz
      dof rx ry rz
   end
   begin
      id 5
      name RightLeg
      direction 0.000000 -1.000000 0.000000
      length 16.881075
      axis 0.0 0.0 0.0 xyz
      dof rx ry rz
   end
   begin
      id 6
      name RightFoot
      direction 0.000000 -0.258819 0.965926
      length 5.770812
      axis 15.0 0.0 0.0 xyz
      dof rx ry rz
   end
   begin
      id 7
      name RightToeBase
      direction 0.000000 0.000000 1.000000
      length 2.952750
      axis 0.0 0.0 0.0 xyz
      dof rx ry rz
   end
   begin
      id 8
      name LeftUpLeg
      direction 0.000000 -1.000000 0.000000
      length 18.017682
      axis 0.0 0.0 0.0 xyz
      dof rx ry rz
   end
   begin
      id 9
      name LeftLeg
      direction 0.000000 -1.000000 0.000000
      length 16.881075
      axis 0.0 0.0 0.0 xyz
      dof rx ry rz
   end
   begin
      id 10
      name LeftFoot
      direction 0.000000 -0.258819 0.965926
      length 5.770812
      axis 15.0 0.0 0.0 xyz
      dof rx ry rz
   end
   begin
      id 11
      name LeftToeBase
      direction 0.000000 0.000000 1.000000
      length 2.952750
      axis 0.0 0.0 0.0 xyz
      dof rx ry rz
   end
   begin
      id 12
      name Spine
      direction 0.000000 1.000000 0.000000
      length 0.000000
      axis 0.0 0.0 0.0 xyz
      dof rx ry rz
   end
   begin
      id 13
      name Spine_dum1
      direction 0.000000 1.000000 0.000000
      length 10.941760
      axis 0.0 0.0 0.0 xyz
   end
   begin
      id 14
      name Spine_dum2
      direction 0.000000 1.000000 0.000000
      length 10.941760
      axis 0.0 0.0 0.0 xyz
   end
   begin
      id 15
      name Spine_dum3
      direction 0.000000 1.000000 0.000000
      length 16.646042
      axis 0.0 0.0 0.0 xyz
   end
   begin
      id 16
      name RightShoulder
      direction -1.000000 0.000000 0.000000
      length 7.708937
      axis 0.0 0.0 90.0 xyz
      dof rx ry rz
   end
   begin
      id 17
      name RightArm
      direction -1.000000 0.000000 0.000000
      length 11.521345
      axis 0.0 0.0 90.0 xyz
      dof rx ry rz
   end
   begin
      id 18
      name RightForeArm
      direction -1.000000 0.000000 0.000000
      length 10.175898
      axis 0.0 0.0 90.0 xyz
      dof ry rz rx
   end
   begin
      id 19
      name RightHand
      direction -1.000000 0.000000 0.000000
      length 0.000000
      axis 0.0 0.0 90.0 xyz
      dof rx ry rz
   end
   begin
      id 20
      name RightHand_dum1
      direction -1.000000 0.000000 0.000000
      length 3.937000
      axis 0.0 0.0 90.0 xyz
   end
   begin
      id 21
      name RightHand_dum2
      direction 0.000000 0.000000 0.000000
      length 0.000000
      axis 0.0 0.0 90.0 xyz
   end
   begin
      id 22
      name RightHandThumb1
      direction 0.000000 0.000000 1.000000
      length 3.937000
      axis 0.0 0.0 90.0 xyz
      dof rx rz ry
   end
   begin
      id 23
      name LeftShoulder
      direction 1.000000 0.000000 0.000000
      length 7.708937
      axis 0.0 0.0 -90.0 xyz
      dof rx ry rz
   end
   begin
      id 24
      name LeftArm
      direction 1.000000 0.000000 0.000000
      length 11.521345
      axis 0.0 0.0 -90.0 xyz
      dof rx ry rz
   end
   begin
      id 25
      name LeftForeArm
      direction 1.000000 0.000000 0.000000
      length 10.175898
      axis 0.0 0.0 -90.0 xyz
      dof ry rz rx
   end
   begin
      id 26
      name LeftHand
      direction 1.000000 0.000000 0.000000
      length 0.000000
      axis 0.0 0.0 -90.0 xyz
      dof rx ry rz
   end
   begin
      id 27
      name LeftHand_dum1
      direction 1.000000 0.000000 0.000000
      length 3.937000
      axis 0.0 0.0 -90.0 xyz
   end
   begin
      id 28
      name LeftHand_dum2
      direction 0.000000 0.000000 0.000000
      length 0.000000
      axis 0.0 0.0 -90.0 xyz
   end
   begin
      id 29
      name LeftHandThumb1
      direction 0.000000 0.000000 1.000000
      length 3.937000
      axis 0.0 0.0 -90.0 xyz
      dof rx rz ry
   end
   begin
      id 30
      name Head
      direction 0.000000 1.000000 0.000000
      length 4.527550
      axis 0.0 0.0 0.0 xyz
      dof rx ry rz
   end
:hierarchy
   begin
      root RightUpLeg_dum LeftUpLeg_dum Spine_dum
      RightUpLeg_dum RightUpLeg
      LeftUpLeg_dum LeftUpLeg
      Spine_dum Spine
      RightUpLeg RightLeg
      RightLeg RightFoot
      RightFoot RightToeBase
      LeftUpLeg LeftLeg
      LeftLeg LeftFoot
      LeftFoot LeftToeBase
      Spine Spine_dum1 Spine_dum2 Spine_dum3
      Spine_dum1 RightShoulder
      Spine_dum2 LeftShoulder
      Spine_dum3 Head
      RightShoulder RightArm
      RightArm RightForeArm
      RightForeArm RightHand
      RightHand RightHand_dum1 RightHand_dum2
      RightHand_dum2 RightHandThumb1
      LeftShoulder LeftArm
      LeftArm LeftForeArm
      LeftForeArm LeftHand
      LeftHand LeftHand_dum1 LeftHand_dum2
      LeftHand_dum2 LeftHandThumb1
   end

# File created by Blade
# Date/Time:  Mon Sep 22 16:45:27 2014
# Frame Rate: 120.000 fps
#------------------------------------------------------
:FULLY-SPECIFIED
:DEGREES
675
root 3.876729 36.568078 2.616072 -42.517498 -15.748401 13.963059
RightUpLeg 31.603581 -0.261242 -12.400512
RightLeg 31.128905 -0.000000 -0.000000
RightFoot -28.788175 4.806626 11.439047
RightToeBase 14.121362 -0.000000 -0.000000
LeftUpLeg -71.517885 -11.404074 -9.345667
LeftLeg 43.356027 -0.000000 -0.000000
LeftFoot 14.106104 16.950330 -32.164721
LeftToeBase 1.182676 -0.000000 -0.000000
Spine 43.695817 15.520722 4.319635
RightShoulder 10.289066 -6.802313 -25.987752
RightArm 35.186402 16.227517 45.926636
RightForeArm -7.495645 0.000000 68.872092
RightHand -1.152969 -0.000000 -17.958604
RightHandThumb1 -24.326973 -0.000000 -32.862282
LeftShoulder -27.859666 35.088492 -12.268319
LeftArm 26.953965 -5.890540 -68.304931
LeftForeArm 36.225776 -0.000000 16.651923
LeftHand -13.693884 -0.000000 -13.989646
LeftHandThumb1 -26.253704 0.000000 33.147579
Head 5.018430 -2.941718 -11.105827
676
root 3.882791 36.569689 2.604842 -42.442376 -15.668408 13.915908
RightUpLeg 31.572218 -0.301857 -12.367488
RightLeg 31.082661 -0.000000 -0.000000
RightFoot -28.756308 4.748721 11.430275
RightToeBase 14.041233 -0.000000 -0.000000
LeftUpLeg -71.453570 -11.448526 -9.507006
LeftLeg 43.579326 -0.000000 -0.000000
LeftFoot 13.854128 16.897581 -31.871959
LeftToeBase 1.139523 -0.000000 -0.000000
Spine 43.682688 15.448599 4.251574
RightShoulder 10.268093 -6.811742 -25.993093
RightArm 35.168433 16.245899 45.882645
RightForeArm -7.442124 -0.000000 68.915551
RightHand -1.238826 -0.000000 -17.950639
RightHandThumb1 -24.326973 -0.000000 -32.862282
LeftShoulder -27.849265 35.123345 -12.259108
LeftArm 27.027581 -5.894167 -68.254690
LeftForeArm 36.222083 -0.000000 16.719608
LeftHand -13.665168 -0.000000 -13.948015
LeftHandThumb1 -26.253704 0.000000 33.147579
Head 4.954632 -2.953697 -11.085575
677
root 3.891370 36.570787 2.593738 -42.372350 -15.575090 13.900175
RightUpLeg 31.517726 -0.354703 -12.392523
RightLeg 31.070895 -0.000000 -0.000000
RightFoot -28.772449 4.691396 11.382962
RightToeBase 14.071705 -0.000000 -0.000000
LeftUpLeg -71.395833 -11.494661 -9.666879
LeftLeg 43.776554 -0.000000 -0.000000
LeftFoot 13.662791 16.844211 -31.728596
LeftToeBase 1.184301 -0.000000 -0.000000
Spine 43.670896 15.397848 4.149865
RightShoulder 10.235525 -6.822621 -25.987663
RightArm 35.161405 16.277404 45.849374
RightForeArm -7.386706 -0.000000 68.962944
RightHand -1.205038 -0.000000 -17.931508
RightHandThumb1 -24.326973 -0.000000 -32.862282
LeftShoulder -27.796565 35.082528 -12.186833
LeftArm 27.012353 -5.889912 -68.203088
LeftForeArm 36.211393 -0.000000 16.788349
LeftHand -13.639841 -0.000000 -13.863260
LeftHandThumb1 -26.253704 0.000000 33.147579
Head 4.893382 -3.044493 -11.092372
678
root 3.897695 36.569642 2.581761 -42.283474 -15.515455 13.877835
RightUpLeg 31.432715 -0.382692 -12.372083
RightLeg 31.080224 -0.000000 -0.000000
RightFoot -28.763057 4.675697 11.407816
RightToeBase 13.985418 -0.000000 -0.000000
LeftUpLeg -71.391374 -11.530956 -9.774085
LeftLeg 44.008901 -0.000000 -0.000000
LeftFoot 13.495543 16.788183 -31.699055
LeftToeBase 1.376861 -0.000000 -0.000000
Spine 43.641855 15.360498 4.073091
RightShoulder 10.194270 -6.845524 -25.987606
RightArm 35.179841 16.306748 45.825585
RightForeArm -7.347700 0.000000 69.015141
RightHand -1.191179 0.000000 -17.887410
RightHandThumb1 -24.326973 -0.000000 -32.862282
LeftShoulder -27.768273 35.027388 -12.147537
LeftArm 26.993573 -5.904949 -68.130546
LeftForeArm 36.278817 -0.000000 16.856130
LeftHand -13.683046 -0.000000 -13.893138
LeftHandThumb1 -26.253704 0.000000 33.147579
Head 4.825841 -3.076717 -11.083876
679
root 3.903330 36.568126 2.570323 -42.193708 -15.466976 13.863211
RightUpLeg 31.336768 -0.404138 -12.350493
RightLeg 31.091020 -0.000000 -0.000000
RightFoot -28.769090 4.600949 11.377753
RightToeBase 13.961068 -0.000000 -0.000000
LeftUpLeg -71.406382 -11.551456 -9.883783
LeftLeg 44.263599 -0.000000 -0.000000
LeftFoot 13.395368 16.754996 -31.676285
LeftToeBase 1.247302 -0.000000 -0.000000
Spine 43.607076 15.339915 4.000960
RightShoulder 10.143903 -6.895516 -25.979830
RightArm 35.231611 16.349910 45.808173
RightForeArm -7.311805 0.000000 69.056547
RightHand -1.210744 -0.000000 -17.876328
RightHandThumb1 -24.326973 -0.000000 -32.862282
LeftShoulder -27.751125 35.003252 -12.126843
LeftArm 27.010913 -5.912035 -68.039522
LeftForeArm 36.379005 -0.000000 16.894610
LeftHand -13.750072 -0.000000 -13.789831
LeftHandThumb1 -26.253704 0.000000 33.147579
Head 4.781152 -3.096178 -11.080870
680
root 3.911668 36.565644 2.555969 -42.091514 -15.445983 13.869230
RightUpLeg 31.196884 -0.388871 -12.319133
RightLeg 31.118242 -0.000000 -0.000000
RightFoot -28.791705 4.520102 11.353970
RightToeBase 13.897954 -0.000000 -0.000000
LeftUpLeg -71.462593 -11.543877 -9.975131
LeftLeg 44.540969 -0.000000 -0.000000
LeftFoot 13.327045 16.690849 -31.735026
LeftToeBase 1.196139 -0.000000 -0.000000
Spine 43.566988 15.344600 3.934803
RightShoulder 10.094763 -6.952378 -25.983939
RightArm 35.295864 16.416984 45.806718
RightForeArm -7.304793 -0.000000 69.098991
RightHand -1.118899 -0.000000 -17.830301
RightHandThumb1 -24.326973 -0.000000 -32.862282
LeftShoulder -27.716572 34.950913 -12.101017
LeftArm 26.985836 -5.953893 -67.967315
LeftForeArm 36.428716 0.000000 16.959483
LeftHand -13.803085 -0.000000 -13.706435
LeftHandThumb1 -26.253704 0.000000 33.147579
Head 4.729270 -3.138276 -11.108865
681
root 3.919591 36.562808 2.542561 -42.004001 -15.435151 13.891191
RightUpLeg 31.076108 -0.339113 -12.271375
RightLeg 31.133900 -0.000000 -0.000000
RightFoot -28.898645 4.279090 11.111303
RightToeBase 13.974589 -0.000000 -0.000000
LeftUpLeg -71.551510 -11.520977 -10.054252
LeftLeg 44.913298 -0.000000 -0.000000
LeftFoot 13.259384 16.535744 -31.734514
LeftToeBase 1.020503 -0.000000 -0.000000
Spine 43.543423 15.367491 3.856183
RightShoulder 10.051040 -6.971331 -25.973389
RightArm 35.318909 16.459906 45.780234
RightForeArm -7.262123 0.000000 69.140393
RightHand -1.118043 -0.000000 -17.817867
RightHandThumb1 -24.326973 -0.000000 -32.862282
LeftShoulder -27.718269 34.929078 -12.087288
LeftArm 27.007200 -6.011888 -67.916574
LeftForeArm 36.482854 -0.000000 17.006131
LeftHand -13.844695 0.000000 -13.604223
LeftHandThumb1 -26.253704 0.000000 33.147579
Head 4.656751 -3.171846 -11.123085
682
root 3.923194 36.561933 2.533219 -41.955496 -15.430264 13.895471
RightUpLeg 31.020439 -0.286925 -12.202864
RightLeg 31.116436 -0.000000 -0.000000
RightFoot -28.922929 4.137495 11.049155
RightToeBase 13.873283 -0.000000 -0.000000
LeftUpLeg -71.635300 -11.481261 -10.166058
LeftLeg 45.425615 -0.000000 -0.000000
LeftFoot 12.938503 16.400765 -31.844646
LeftToeBase 1.174742 -0.000000 -0.000000
Spine 43.567758 15.380664 3.800800
RightShoulder 10.001958 -6.998150 -25.956760
RightArm 35.363329 16.514509 45.764874
RightForeArm -7.216232 -0.000000 69.169556
RightHand -1.127702 0.000000 -17.812066
RightHandThumb1 -24.326973 -0.000000 -32.862282
LeftShoulder -27.761472 34.940098 -12.099152
LeftArm 27.083657 -6.067007 -67.865553
LeftForeArm 36.567648 -0.000000 17.030955
LeftHand -13.876075 -0.000000 -13.527123
LeftHandThumb1 -26.253704 0.000000 33.147579
Head 4.560075 -3.215806 -11.114918
